<mxfile host="app.diagrams.net" modified="2024-06-11T15:31:50.084Z" agent="Mozilla/5.0 (Windows NT 10.0; Win64; x64) AppleWebKit/537.36 (KHTML, like Gecko) Chrome/125.0.0.0 Safari/537.36" etag="HhAMslxkAJ5VP_Jux-ul" version="24.0.5" type="device">
  <diagram name="Page-1" id="ESpapZe0kDYLYq1Ady32">
    <mxGraphModel dx="954" dy="674" grid="1" gridSize="10" guides="1" tooltips="1" connect="1" arrows="1" fold="1" page="1" pageScale="1" pageWidth="850" pageHeight="1100" math="0" shadow="0">
      <root>
        <mxCell id="0" />
        <mxCell id="1" parent="0" />
        <mxCell id="osKhVBoawhrQv2G9dEZ9-23" value="" style="pointerEvents=1;verticalLabelPosition=bottom;shadow=0;dashed=0;align=center;html=1;verticalAlign=top;shape=mxgraph.electrical.waveforms.sine_wave;strokeWidth=9;strokeColor=#0000FF;" vertex="1" parent="1">
          <mxGeometry x="60" y="20" width="600" height="400" as="geometry" />
        </mxCell>
        <mxCell id="osKhVBoawhrQv2G9dEZ9-2" value="" style="endArrow=none;html=1;rounded=0;strokeWidth=5;" edge="1" parent="1" source="osKhVBoawhrQv2G9dEZ9-19">
          <mxGeometry width="50" height="50" relative="1" as="geometry">
            <mxPoint x="60" y="390" as="sourcePoint" />
            <mxPoint x="60" y="250" as="targetPoint" />
          </mxGeometry>
        </mxCell>
        <mxCell id="osKhVBoawhrQv2G9dEZ9-3" value="" style="endArrow=none;html=1;rounded=0;strokeWidth=5;" edge="1" parent="1" source="osKhVBoawhrQv2G9dEZ9-21">
          <mxGeometry width="50" height="50" relative="1" as="geometry">
            <mxPoint x="100" y="50" as="sourcePoint" />
            <mxPoint x="100" y="390" as="targetPoint" />
          </mxGeometry>
        </mxCell>
        <mxCell id="osKhVBoawhrQv2G9dEZ9-4" value="" style="endArrow=none;html=1;rounded=0;strokeWidth=5;" edge="1" parent="1" source="osKhVBoawhrQv2G9dEZ9-26">
          <mxGeometry width="50" height="50" relative="1" as="geometry">
            <mxPoint x="140" y="40" as="sourcePoint" />
            <mxPoint x="140" y="390" as="targetPoint" />
          </mxGeometry>
        </mxCell>
        <mxCell id="osKhVBoawhrQv2G9dEZ9-5" value="" style="endArrow=none;html=1;rounded=0;strokeWidth=5;" edge="1" parent="1" source="osKhVBoawhrQv2G9dEZ9-28">
          <mxGeometry width="50" height="50" relative="1" as="geometry">
            <mxPoint x="180" y="50" as="sourcePoint" />
            <mxPoint x="180" y="390" as="targetPoint" />
          </mxGeometry>
        </mxCell>
        <mxCell id="osKhVBoawhrQv2G9dEZ9-6" value="" style="endArrow=none;html=1;rounded=0;strokeWidth=5;" edge="1" parent="1" source="osKhVBoawhrQv2G9dEZ9-30">
          <mxGeometry width="50" height="50" relative="1" as="geometry">
            <mxPoint x="220" y="40" as="sourcePoint" />
            <mxPoint x="220" y="390" as="targetPoint" />
          </mxGeometry>
        </mxCell>
        <mxCell id="osKhVBoawhrQv2G9dEZ9-7" value="" style="endArrow=none;html=1;rounded=0;strokeWidth=5;" edge="1" parent="1" source="osKhVBoawhrQv2G9dEZ9-32">
          <mxGeometry width="50" height="50" relative="1" as="geometry">
            <mxPoint x="259.38" y="50" as="sourcePoint" />
            <mxPoint x="259.38" y="390" as="targetPoint" />
          </mxGeometry>
        </mxCell>
        <mxCell id="osKhVBoawhrQv2G9dEZ9-8" value="" style="endArrow=none;html=1;rounded=0;strokeWidth=5;" edge="1" parent="1" source="osKhVBoawhrQv2G9dEZ9-34">
          <mxGeometry width="50" height="50" relative="1" as="geometry">
            <mxPoint x="299.38" y="40" as="sourcePoint" />
            <mxPoint x="299.38" y="390" as="targetPoint" />
          </mxGeometry>
        </mxCell>
        <mxCell id="osKhVBoawhrQv2G9dEZ9-9" value="" style="endArrow=none;html=1;rounded=0;strokeWidth=5;" edge="1" parent="1" source="osKhVBoawhrQv2G9dEZ9-36">
          <mxGeometry width="50" height="50" relative="1" as="geometry">
            <mxPoint x="339.38" y="50" as="sourcePoint" />
            <mxPoint x="339.38" y="390" as="targetPoint" />
          </mxGeometry>
        </mxCell>
        <mxCell id="osKhVBoawhrQv2G9dEZ9-10" value="" style="endArrow=none;html=1;rounded=0;strokeWidth=5;" edge="1" parent="1" source="osKhVBoawhrQv2G9dEZ9-38">
          <mxGeometry width="50" height="50" relative="1" as="geometry">
            <mxPoint x="379.38" y="40" as="sourcePoint" />
            <mxPoint x="379.38" y="390" as="targetPoint" />
          </mxGeometry>
        </mxCell>
        <mxCell id="osKhVBoawhrQv2G9dEZ9-11" value="" style="endArrow=none;html=1;rounded=0;strokeWidth=5;" edge="1" parent="1" source="osKhVBoawhrQv2G9dEZ9-42">
          <mxGeometry width="50" height="50" relative="1" as="geometry">
            <mxPoint x="420" y="50" as="sourcePoint" />
            <mxPoint x="420" y="390" as="targetPoint" />
          </mxGeometry>
        </mxCell>
        <mxCell id="osKhVBoawhrQv2G9dEZ9-12" value="" style="endArrow=none;html=1;rounded=0;strokeWidth=5;exitX=0.59;exitY=0.554;exitDx=0;exitDy=0;exitPerimeter=0;" edge="1" parent="1" source="osKhVBoawhrQv2G9dEZ9-45">
          <mxGeometry width="50" height="50" relative="1" as="geometry">
            <mxPoint x="460" y="210" as="sourcePoint" />
            <mxPoint x="460" y="390" as="targetPoint" />
          </mxGeometry>
        </mxCell>
        <mxCell id="osKhVBoawhrQv2G9dEZ9-13" value="" style="endArrow=none;html=1;rounded=0;strokeWidth=5;" edge="1" parent="1" source="osKhVBoawhrQv2G9dEZ9-40">
          <mxGeometry width="50" height="50" relative="1" as="geometry">
            <mxPoint x="500" y="50" as="sourcePoint" />
            <mxPoint x="500" y="390" as="targetPoint" />
          </mxGeometry>
        </mxCell>
        <mxCell id="osKhVBoawhrQv2G9dEZ9-14" value="" style="endArrow=none;html=1;rounded=0;strokeWidth=5;" edge="1" parent="1" source="osKhVBoawhrQv2G9dEZ9-49">
          <mxGeometry width="50" height="50" relative="1" as="geometry">
            <mxPoint x="540" y="210" as="sourcePoint" />
            <mxPoint x="540" y="390" as="targetPoint" />
          </mxGeometry>
        </mxCell>
        <mxCell id="osKhVBoawhrQv2G9dEZ9-15" value="" style="endArrow=none;html=1;rounded=0;strokeWidth=5;" edge="1" parent="1" source="osKhVBoawhrQv2G9dEZ9-50">
          <mxGeometry width="50" height="50" relative="1" as="geometry">
            <mxPoint x="580" y="50" as="sourcePoint" />
            <mxPoint x="580" y="390" as="targetPoint" />
          </mxGeometry>
        </mxCell>
        <mxCell id="osKhVBoawhrQv2G9dEZ9-16" value="" style="endArrow=none;html=1;rounded=0;strokeWidth=5;" edge="1" parent="1" source="osKhVBoawhrQv2G9dEZ9-47">
          <mxGeometry width="50" height="50" relative="1" as="geometry">
            <mxPoint x="620" y="40" as="sourcePoint" />
            <mxPoint x="620" y="390" as="targetPoint" />
          </mxGeometry>
        </mxCell>
        <mxCell id="osKhVBoawhrQv2G9dEZ9-17" value="" style="endArrow=none;html=1;rounded=0;strokeWidth=5;" edge="1" parent="1" source="osKhVBoawhrQv2G9dEZ9-53">
          <mxGeometry width="50" height="50" relative="1" as="geometry">
            <mxPoint x="660" y="50" as="sourcePoint" />
            <mxPoint x="660" y="390" as="targetPoint" />
          </mxGeometry>
        </mxCell>
        <mxCell id="osKhVBoawhrQv2G9dEZ9-20" value="" style="endArrow=none;html=1;rounded=0;strokeWidth=5;" edge="1" parent="1" target="osKhVBoawhrQv2G9dEZ9-19">
          <mxGeometry width="50" height="50" relative="1" as="geometry">
            <mxPoint x="60" y="390" as="sourcePoint" />
            <mxPoint x="60" y="250" as="targetPoint" />
          </mxGeometry>
        </mxCell>
        <mxCell id="osKhVBoawhrQv2G9dEZ9-19" value="" style="shape=waypoint;sketch=0;fillStyle=solid;size=6;pointerEvents=1;points=[];fillColor=none;resizable=0;rotatable=0;perimeter=centerPerimeter;snapToPoint=1;strokeWidth=14;" vertex="1" parent="1">
          <mxGeometry x="50" y="210" width="20" height="20" as="geometry" />
        </mxCell>
        <mxCell id="osKhVBoawhrQv2G9dEZ9-25" value="" style="endArrow=none;html=1;rounded=0;strokeWidth=5;exitX=0.506;exitY=0.429;exitDx=0;exitDy=0;exitPerimeter=0;" edge="1" parent="1" source="osKhVBoawhrQv2G9dEZ9-21" target="osKhVBoawhrQv2G9dEZ9-21">
          <mxGeometry width="50" height="50" relative="1" as="geometry">
            <mxPoint x="100" y="50" as="sourcePoint" />
            <mxPoint x="100" y="390" as="targetPoint" />
          </mxGeometry>
        </mxCell>
        <mxCell id="osKhVBoawhrQv2G9dEZ9-21" value="" style="shape=waypoint;sketch=0;fillStyle=solid;size=6;pointerEvents=1;points=[];fillColor=none;resizable=0;rotatable=0;perimeter=centerPerimeter;snapToPoint=1;strokeWidth=14;" vertex="1" parent="1">
          <mxGeometry x="90" y="150" width="20" height="20" as="geometry" />
        </mxCell>
        <mxCell id="osKhVBoawhrQv2G9dEZ9-27" value="" style="endArrow=none;html=1;rounded=0;strokeWidth=5;exitX=0.485;exitY=0.304;exitDx=0;exitDy=0;exitPerimeter=0;" edge="1" parent="1" source="osKhVBoawhrQv2G9dEZ9-26" target="osKhVBoawhrQv2G9dEZ9-26">
          <mxGeometry width="50" height="50" relative="1" as="geometry">
            <mxPoint x="140" y="40" as="sourcePoint" />
            <mxPoint x="140" y="390" as="targetPoint" />
          </mxGeometry>
        </mxCell>
        <mxCell id="osKhVBoawhrQv2G9dEZ9-26" value="" style="shape=waypoint;sketch=0;fillStyle=solid;size=6;pointerEvents=1;points=[];fillColor=none;resizable=0;rotatable=0;perimeter=centerPerimeter;snapToPoint=1;strokeWidth=14;" vertex="1" parent="1">
          <mxGeometry x="130" y="100" width="20" height="20" as="geometry" />
        </mxCell>
        <mxCell id="osKhVBoawhrQv2G9dEZ9-29" value="" style="endArrow=none;html=1;rounded=0;strokeWidth=5;exitX=0.444;exitY=0.408;exitDx=0;exitDy=0;exitPerimeter=0;" edge="1" parent="1" source="osKhVBoawhrQv2G9dEZ9-28" target="osKhVBoawhrQv2G9dEZ9-28">
          <mxGeometry width="50" height="50" relative="1" as="geometry">
            <mxPoint x="180" y="50" as="sourcePoint" />
            <mxPoint x="180" y="390" as="targetPoint" />
          </mxGeometry>
        </mxCell>
        <mxCell id="osKhVBoawhrQv2G9dEZ9-28" value="" style="shape=waypoint;sketch=0;fillStyle=solid;size=6;pointerEvents=1;points=[];fillColor=none;resizable=0;rotatable=0;perimeter=centerPerimeter;snapToPoint=1;strokeWidth=14;" vertex="1" parent="1">
          <mxGeometry x="170" y="70" width="20" height="20" as="geometry" />
        </mxCell>
        <mxCell id="osKhVBoawhrQv2G9dEZ9-31" value="" style="endArrow=none;html=1;rounded=0;strokeWidth=5;exitX=0.506;exitY=0.419;exitDx=0;exitDy=0;exitPerimeter=0;" edge="1" parent="1" source="osKhVBoawhrQv2G9dEZ9-30" target="osKhVBoawhrQv2G9dEZ9-30">
          <mxGeometry width="50" height="50" relative="1" as="geometry">
            <mxPoint x="220" y="40" as="sourcePoint" />
            <mxPoint x="220" y="390" as="targetPoint" />
          </mxGeometry>
        </mxCell>
        <mxCell id="osKhVBoawhrQv2G9dEZ9-30" value="" style="shape=waypoint;sketch=0;fillStyle=solid;size=6;pointerEvents=1;points=[];fillColor=none;resizable=0;rotatable=0;perimeter=centerPerimeter;snapToPoint=1;strokeWidth=14;" vertex="1" parent="1">
          <mxGeometry x="210" y="60" width="20" height="20" as="geometry" />
        </mxCell>
        <mxCell id="osKhVBoawhrQv2G9dEZ9-33" value="" style="endArrow=none;html=1;rounded=0;strokeWidth=5;" edge="1" parent="1" target="osKhVBoawhrQv2G9dEZ9-32">
          <mxGeometry width="50" height="50" relative="1" as="geometry">
            <mxPoint x="259" y="90" as="sourcePoint" />
            <mxPoint x="259.38" y="390" as="targetPoint" />
          </mxGeometry>
        </mxCell>
        <mxCell id="osKhVBoawhrQv2G9dEZ9-32" value="" style="shape=waypoint;sketch=0;fillStyle=solid;size=6;pointerEvents=1;points=[];fillColor=none;resizable=0;rotatable=0;perimeter=centerPerimeter;snapToPoint=1;strokeWidth=14;" vertex="1" parent="1">
          <mxGeometry x="250" y="80" width="20" height="20" as="geometry" />
        </mxCell>
        <mxCell id="osKhVBoawhrQv2G9dEZ9-35" value="" style="endArrow=none;html=1;rounded=0;strokeWidth=5;" edge="1" parent="1" target="osKhVBoawhrQv2G9dEZ9-34">
          <mxGeometry width="50" height="50" relative="1" as="geometry">
            <mxPoint x="300" y="130" as="sourcePoint" />
            <mxPoint x="299.38" y="390" as="targetPoint" />
          </mxGeometry>
        </mxCell>
        <mxCell id="osKhVBoawhrQv2G9dEZ9-34" value="" style="shape=waypoint;sketch=0;fillStyle=solid;size=6;pointerEvents=1;points=[];fillColor=none;resizable=0;rotatable=0;perimeter=centerPerimeter;snapToPoint=1;strokeWidth=14;" vertex="1" parent="1">
          <mxGeometry x="290" y="120" width="20" height="20" as="geometry" />
        </mxCell>
        <mxCell id="osKhVBoawhrQv2G9dEZ9-37" value="" style="endArrow=none;html=1;rounded=0;strokeWidth=5;exitX=0.465;exitY=0.422;exitDx=0;exitDy=0;exitPerimeter=0;" edge="1" parent="1" source="osKhVBoawhrQv2G9dEZ9-23" target="osKhVBoawhrQv2G9dEZ9-36">
          <mxGeometry width="50" height="50" relative="1" as="geometry">
            <mxPoint x="339.38" y="50" as="sourcePoint" />
            <mxPoint x="339.38" y="390" as="targetPoint" />
          </mxGeometry>
        </mxCell>
        <mxCell id="osKhVBoawhrQv2G9dEZ9-36" value="" style="shape=waypoint;sketch=0;fillStyle=solid;size=6;pointerEvents=1;points=[];fillColor=none;resizable=0;rotatable=0;perimeter=centerPerimeter;snapToPoint=1;strokeWidth=14;" vertex="1" parent="1">
          <mxGeometry x="330" y="180" width="20" height="20" as="geometry" />
        </mxCell>
        <mxCell id="osKhVBoawhrQv2G9dEZ9-39" value="" style="endArrow=none;html=1;rounded=0;strokeWidth=5;" edge="1" parent="1" target="osKhVBoawhrQv2G9dEZ9-38">
          <mxGeometry width="50" height="50" relative="1" as="geometry">
            <mxPoint x="380" y="250" as="sourcePoint" />
            <mxPoint x="379.38" y="390" as="targetPoint" />
          </mxGeometry>
        </mxCell>
        <mxCell id="osKhVBoawhrQv2G9dEZ9-38" value="" style="shape=waypoint;sketch=0;fillStyle=solid;size=6;pointerEvents=1;points=[];fillColor=none;resizable=0;rotatable=0;perimeter=centerPerimeter;snapToPoint=1;strokeWidth=14;" vertex="1" parent="1">
          <mxGeometry x="370" y="240" width="20" height="20" as="geometry" />
        </mxCell>
        <mxCell id="osKhVBoawhrQv2G9dEZ9-44" value="" style="endArrow=none;html=1;rounded=0;strokeWidth=5;exitX=0.631;exitY=0.273;exitDx=0;exitDy=0;exitPerimeter=0;" edge="1" parent="1" source="osKhVBoawhrQv2G9dEZ9-42" target="osKhVBoawhrQv2G9dEZ9-42">
          <mxGeometry width="50" height="50" relative="1" as="geometry">
            <mxPoint x="420" y="50" as="sourcePoint" />
            <mxPoint x="420" y="390" as="targetPoint" />
          </mxGeometry>
        </mxCell>
        <mxCell id="osKhVBoawhrQv2G9dEZ9-42" value="" style="shape=waypoint;sketch=0;fillStyle=solid;size=6;pointerEvents=1;points=[];fillColor=none;resizable=0;rotatable=0;perimeter=centerPerimeter;snapToPoint=1;strokeWidth=14;" vertex="1" parent="1">
          <mxGeometry x="410" y="300" width="20" height="20" as="geometry" />
        </mxCell>
        <mxCell id="osKhVBoawhrQv2G9dEZ9-45" value="" style="shape=waypoint;sketch=0;fillStyle=solid;size=6;pointerEvents=1;points=[];fillColor=none;resizable=0;rotatable=0;perimeter=centerPerimeter;snapToPoint=1;strokeWidth=14;" vertex="1" parent="1">
          <mxGeometry x="450" y="340" width="20" height="20" as="geometry" />
        </mxCell>
        <mxCell id="osKhVBoawhrQv2G9dEZ9-46" value="" style="endArrow=none;html=1;rounded=0;strokeWidth=5;exitX=0.683;exitY=0.44;exitDx=0;exitDy=0;exitPerimeter=0;" edge="1" parent="1" source="osKhVBoawhrQv2G9dEZ9-40" target="osKhVBoawhrQv2G9dEZ9-40">
          <mxGeometry width="50" height="50" relative="1" as="geometry">
            <mxPoint x="500" y="210" as="sourcePoint" />
            <mxPoint x="500" y="390" as="targetPoint" />
          </mxGeometry>
        </mxCell>
        <mxCell id="osKhVBoawhrQv2G9dEZ9-40" value="" style="shape=waypoint;sketch=0;fillStyle=solid;size=6;pointerEvents=1;points=[];fillColor=none;resizable=0;rotatable=0;perimeter=centerPerimeter;snapToPoint=1;strokeWidth=14;" vertex="1" parent="1">
          <mxGeometry x="490" y="360" width="20" height="20" as="geometry" />
        </mxCell>
        <mxCell id="osKhVBoawhrQv2G9dEZ9-49" value="" style="shape=waypoint;sketch=0;fillStyle=solid;size=6;pointerEvents=1;points=[];fillColor=none;resizable=0;rotatable=0;perimeter=centerPerimeter;snapToPoint=1;strokeWidth=14;" vertex="1" parent="1">
          <mxGeometry x="530" y="350" width="20" height="20" as="geometry" />
        </mxCell>
        <mxCell id="osKhVBoawhrQv2G9dEZ9-51" value="" style="endArrow=none;html=1;rounded=0;strokeWidth=5;exitX=0.496;exitY=0.429;exitDx=0;exitDy=0;exitPerimeter=0;" edge="1" parent="1" source="osKhVBoawhrQv2G9dEZ9-50" target="osKhVBoawhrQv2G9dEZ9-50">
          <mxGeometry width="50" height="50" relative="1" as="geometry">
            <mxPoint x="580" y="210" as="sourcePoint" />
            <mxPoint x="580" y="390" as="targetPoint" />
          </mxGeometry>
        </mxCell>
        <mxCell id="osKhVBoawhrQv2G9dEZ9-50" value="" style="shape=waypoint;sketch=0;fillStyle=solid;size=6;pointerEvents=1;points=[];fillColor=none;resizable=0;rotatable=0;perimeter=centerPerimeter;snapToPoint=1;strokeWidth=14;" vertex="1" parent="1">
          <mxGeometry x="570" y="320" width="20" height="20" as="geometry" />
        </mxCell>
        <mxCell id="osKhVBoawhrQv2G9dEZ9-52" value="" style="endArrow=none;html=1;rounded=0;strokeWidth=5;exitX=0.329;exitY=0.388;exitDx=0;exitDy=0;exitPerimeter=0;" edge="1" parent="1" source="osKhVBoawhrQv2G9dEZ9-47" target="osKhVBoawhrQv2G9dEZ9-47">
          <mxGeometry width="50" height="50" relative="1" as="geometry">
            <mxPoint x="620" y="200" as="sourcePoint" />
            <mxPoint x="620" y="390" as="targetPoint" />
          </mxGeometry>
        </mxCell>
        <mxCell id="osKhVBoawhrQv2G9dEZ9-47" value="" style="shape=waypoint;sketch=0;fillStyle=solid;size=6;pointerEvents=1;points=[];fillColor=none;resizable=0;rotatable=0;perimeter=centerPerimeter;snapToPoint=1;strokeWidth=14;" vertex="1" parent="1">
          <mxGeometry x="610" y="270" width="20" height="20" as="geometry" />
        </mxCell>
        <mxCell id="osKhVBoawhrQv2G9dEZ9-54" value="" style="endArrow=none;html=1;rounded=0;strokeWidth=5;exitX=0.413;exitY=0.471;exitDx=0;exitDy=0;exitPerimeter=0;" edge="1" parent="1" source="osKhVBoawhrQv2G9dEZ9-53" target="osKhVBoawhrQv2G9dEZ9-53">
          <mxGeometry width="50" height="50" relative="1" as="geometry">
            <mxPoint x="660" y="50" as="sourcePoint" />
            <mxPoint x="660" y="390" as="targetPoint" />
          </mxGeometry>
        </mxCell>
        <mxCell id="osKhVBoawhrQv2G9dEZ9-53" value="" style="shape=waypoint;sketch=0;fillStyle=solid;size=6;pointerEvents=1;points=[];fillColor=none;resizable=0;rotatable=0;perimeter=centerPerimeter;snapToPoint=1;strokeWidth=14;" vertex="1" parent="1">
          <mxGeometry x="650" y="210" width="20" height="20" as="geometry" />
        </mxCell>
      </root>
    </mxGraphModel>
  </diagram>
</mxfile>
